<?xml version="1.0" encoding="UTF-8"?>
<svg width="500px" height="60px" viewBox="0 0 500 60" version="1.1" xmlns="http://www.w3.org/2000/svg" xmlns:xlink="http://www.w3.org/1999/xlink">
    <!-- Generator: Sketch 60.1 (88133) - https://sketch.com -->
    <title>Logo_AlbatrosCoding_white</title>
    <desc>Created with Sketch.</desc>
    <g id="Logo_AlbatrosCoding_white" stroke="none" stroke-width="1" fill="none" fill-rule="evenodd">
        <path d="M96.12,46 C96.54,46 96.96,45.7 97.08,45.34 L101.4,32.86 L127.8,32.86 L132.12,45.34 C132.24,45.7 132.66,46 133.08,46 L135.42,46 L119.52,0.94 L111.48,0.94 C110.46,0.94 109.38,1.72 109.02,2.68 L93.78,46 L96.12,46 Z M126.9,30.28 L102.3,30.28 L111.36,4.18 C111.48,3.82 111.84,3.58 112.26,3.58 L117.6,3.58 L126.9,30.28 Z M148.8,45.94 L148.8,4.12 C148.8,3.76 148.5,3.46 148.14,3.46 L146.1,3.46 L146.1,45.34 C146.1,45.7 146.4,45.94 146.76,45.94 L148.8,45.94 Z M178.38,46 C182.52,46 185.82,43.18 185.82,38.68 L185.82,23.32 C185.82,18.82 182.52,16 178.38,16 L166.68,16 C165.84,16 165.06,16.48 165,17.14 L165,1.66 C165,1.3 164.7,1 164.34,1 L162.3,1 L162.3,45.34 C162.3,45.7 162.6,46 162.96,46 L178.38,46 Z M178.38,43.48 L165,43.48 L165,19.54 C165.06,18.94 165.48,18.52 166.02,18.46 L178.38,18.46 C181.02,18.46 183.24,20.62 183.24,23.26 L183.24,38.74 C183.24,41.38 181.02,43.48 178.38,43.48 Z M219.9,46 C220.26,46 220.56,45.7 220.56,45.34 L220.56,23.5 C220.56,19.36 217.26,15.94 213.12,15.94 L199.98,15.94 L199.98,17.8 C199.98,18.16 200.28,18.46 200.58,18.46 L213.12,18.46 C215.76,18.46 217.86,20.62 217.86,23.26 L217.86,27.16 C217.8,27.58 217.56,27.82 217.2,27.82 L204.84,27.82 C200.7,27.82 197.4,31.18 197.4,35.38 L197.4,38.5 C197.4,42.64 200.7,46 204.84,46 L219.9,46 Z M217.86,43.36 L204.84,43.36 C202.2,43.36 200.1,41.26 200.1,38.62 L200.1,35.14 C200.1,32.5 202.2,30.34 204.84,30.34 L217.38,30.34 C217.56,30.34 217.74,30.22 217.86,30.1 L217.86,43.36 Z M247.14,46 L247.14,44.14 C247.14,43.78 246.84,43.48 246.54,43.48 L241.2,43.48 C238.56,43.48 236.46,41.32 236.46,38.74 L236.46,18.52 L244.8,18.52 C245.16,18.52 245.46,18.22 245.46,17.86 L245.46,16.06 L238.14,16.06 C237.3,16.06 236.52,16.54 236.46,17.2 L236.46,1.54 C236.46,1.18 236.16,0.88 235.8,0.88 L233.76,0.88 L233.76,38.44 C233.76,42.64 237.06,46 241.2,46 L247.14,46 Z M261.24,46 L261.24,22.78 C261.24,22.78 261.12,18.46 265.32,18.46 L272.7,18.46 C273.06,18.46 273.36,18.22 273.36,17.86 L273.36,16 L266.52,16 C262.44,16 261.24,17.98 261.24,17.98 L261.24,16 L258.54,16 L258.54,46 L261.24,46 Z M301.2,46.42 C305.28,46.42 308.58,43.06 308.58,38.92 L308.58,23.14 C308.58,19 305.28,15.58 301.2,15.58 L292.14,15.58 C288,15.58 284.7,19 284.7,23.14 L284.7,38.92 C284.7,43.06 288,46.42 292.14,46.42 L301.2,46.42 Z M301.2,43.9 L292.14,43.9 C289.5,43.9 287.4,41.8 287.4,39.16 L287.4,22.9 C287.4,20.26 289.5,18.1 292.14,18.1 L301.2,18.1 C303.78,18.1 305.88,20.26 305.88,22.9 L305.88,39.16 C305.88,41.8 303.78,43.9 301.2,43.9 Z M337.14,46 C341.22,46 344.58,43.6 344.58,39.4 L344.58,34.84 C344.58,33.88 343.86,32.86 342.96,32.56 L324.36,25.84 C324.06,25.72 323.76,25.36 323.76,25 L323.76,22.78 C323.76,20.14 325.86,18.46 328.5,18.46 L341.64,18.46 C342,18.46 342.3,18.16 342.3,17.8 L342.3,16 L328.5,16 C324.36,16 321.06,18.58 321.06,22.72 L321.06,25.72 C321.06,26.68 321.78,27.7 322.68,28 L341.4,34.72 C341.7,34.78 342,35.2 342,35.56 L342,39.46 C342,42.04 339.72,43.48 337.14,43.48 L321.66,43.48 C321.3,43.48 321,43.78 321,44.14 L321,46 L337.14,46 Z" id="Albatros" fill="#FFFFFF" fill-rule="nonzero"></path>
        <g transform="translate(272, -42)">
        <path d="M114.76,88 L114.76,86.72 C114.76,86.48 114.56,86.28 114.28,86.28 L101.68,86.28 C99.36,86.28 97.48,84.4 97.48,82.08 L97.48,63.92 C97.48,61.6 99.36,59.72 101.68,59.72 L114.28,59.72 C114.56,59.72 114.76,59.52 114.76,59.24 L114.76,57.96 L101.68,57.96 C98.2,57.96 95.4,60.8 95.4,64.24 L95.4,81.72 C95.4,85.2 98.2,88 101.68,88 L114.76,88 Z M134.04,88.28 C136.76,88.28 138.96,86.04 138.96,83.28 L138.96,72.76 C138.96,70 136.76,67.72 134.04,67.72 L128,67.72 C125.24,67.72 123.04,70 123.04,72.76 L123.04,83.28 C123.04,86.04 125.24,88.28 128,88.28 L134.04,88.28 Z M134.04,86.6 L128,86.6 C126.24,86.6 124.84,85.2 124.84,83.44 L124.84,72.6 C124.84,70.84 126.24,69.4 128,69.4 L134.04,69.4 C135.76,69.4 137.16,70.84 137.16,72.6 L137.16,83.44 C137.16,85.2 135.76,86.6 134.04,86.6 Z M162.72,88 C162.96,88 163.16,87.8 163.16,87.56 L163.16,58 L161.8,58 C161.56,58 161.36,58.2 161.36,58.44 L161.36,68.76 C161.32,68.32 160.8,68 160.24,68 L152.44,68 C149.68,68 147.48,70.24 147.48,73 L147.48,83 C147.48,85.76 149.68,88 152.44,88 L162.72,88 Z M161.36,86.32 L152.44,86.32 C150.68,86.32 149.28,84.92 149.28,83.16 L149.28,72.84 C149.28,71.08 150.68,69.64 152.44,69.64 L160.68,69.64 C161.04,69.68 161.32,69.96 161.36,70.36 L161.36,86.32 Z M173.72,61.4 L173.72,59.52 C173.72,59.32 173.56,59.12 173.32,59.12 L171.92,59.12 L171.92,61 C171.92,61.24 172.08,61.4 172.32,61.4 L173.72,61.4 Z M173.72,88 L173.72,68.4 C173.72,68.16 173.52,68 173.28,68 L171.92,68 L171.92,87.56 C171.92,87.8 172.12,88 172.36,88 L173.72,88 Z M184.64,88 C184.88,88 185.08,87.8 185.08,87.56 L185.08,70.08 C185.08,69.84 185.28,69.64 185.52,69.64 L194.28,69.64 C196,69.64 197.44,71.08 197.44,72.84 L197.44,87.56 C197.44,87.8 197.64,88 197.84,88 L199.24,88 L199.24,73 C199.24,70.24 197,67.96 194.28,67.96 L185.04,67.96 C184.08,67.96 183.28,68.8 183.28,69.76 L183.28,88 L184.64,88 Z M218.2,97.76 C220.96,97.76 223.16,95.52 223.16,92.72 L223.16,68.44 C223.16,68.16 222.96,67.96 222.72,67.96 L212.92,67.96 C210.16,67.96 207.96,70.24 207.96,73 L207.96,82.96 C207.96,85.72 210.16,88 212.92,88 L220.28,87.96 C220.8,87.96 221.2,87.76 221.36,87.4 L221.36,92.92 C221.36,94.68 219.96,96 218.2,96 L209.2,96 C209,96 208.8,96.2 208.8,96.44 L208.8,97.76 L218.2,97.76 Z M220.64,86.32 L212.92,86.32 C211.16,86.32 209.76,84.88 209.76,83.12 L209.76,72.84 C209.76,71.08 211.16,69.64 212.92,69.64 L221.36,69.64 L221.36,85.6 C221.36,86 221.04,86.32 220.64,86.32 Z" id="Coding" fill="#FFFFFF" fill-rule="nonzero"></path>
        </g>
        <path d="M45.8744531,34.7311398 C48.5851072,32.1001813 52.8999997,32.1131929 55.5947374,34.7604512 L55.5947374,34.7604512 L63.255907,42.2866367 C63.4473007,42.4746582 63.5551127,42.7317024 63.5551127,43 C63.5551127,43.5522847 63.1073974,44 62.5551127,44 L62.5551127,44 L46.0281225,44 C45.7659844,44 45.5143277,43.8970682 45.3273281,43.7133633 L45.3273281,43.7133633 L41.7305513,40.179959 C41.7248904,40.1743979 41.7192958,40.1687695 41.7137689,40.1630751 C41.329114,39.7667684 41.3385596,39.1336739 41.7348663,38.7490189 L41.7348663,38.7490189 Z M42.5175474,27 C42.789533,27 43.0497848,27.1107872 43.238318,27.3068264 C43.6211472,27.704897 43.6087916,28.3379414 43.210721,28.7207707 L43.210721,28.7207707 L39.9968794,31.8115599 C37.2025181,34.49893 33.4761829,36 29.5992752,36 L29.5992752,36 L3.48245264,36 C3.21046705,36 2.95021522,35.8892128 2.76168198,35.6931736 C2.37885277,35.295103 2.39120839,34.6620586 2.78927903,34.2792293 L2.78927903,34.2792293 L6.00312069,31.1884401 C8.79748198,28.50107 12.5238172,27 16.4007248,27 L16.4007248,27 Z M90.6084114,2 C90.8713138,2 91.1236411,2.10353135 91.3107789,2.28818549 C91.7039032,2.67609234 91.7081327,3.3092432 91.3202259,3.7023675 L91.3202259,3.7023675 L66.1129389,29.2486988 C66.0980195,29.2638189 66.0830077,29.2788475 66.0679043,29.2937838 C64.0235861,31.3154921 60.7274203,31.2971631 58.705712,29.2528448 L58.705712,29.2528448 L55.6957809,26.209252 C55.3103295,25.8194898 55.3105072,25.1920654 55.6961793,24.8025216 L55.6961793,24.8025216 L73.869757,6.44650283 C76.6869872,3.60099094 80.5249854,2 84.5291987,2 L84.5291987,2 Z" id="Combined-Shape" stroke="#FFFFFF" stroke-width="2.5"></path>
    </g>
</svg>