<?xml version="1.0" encoding="UTF-8"?>
<svg preserveAspectRatio="xMidYMid slice" width="500px" height="232px" xmlns="http://www.w3.org/2000/svg" xmlns:xlink="http://www.w3.org/1999/xlink" viewBox="0 0 451.15 209.28">
  <defs>
    <clipPath id="391ed3c8-1603-471f-9c31-1781054c72a9" transform="translate(0 0)">
      <path d="M24.63,172v2.16h8.74V200.3h5.28V174.17h8.78V172Zm45.43,0v23.67c0,10.11-4.79,12.15-7.32,13.6,10.65-1.54,12.61-10.94,12.61-14.35V172Zm74.21,0v11.65H131.33V172H126V200.3h5.37V185.7h12.94v14.6h5.28V172Zm38.1,0v18.3L167,172h-7.15a6.73,6.73,0,0,1,1.87,1.58c.79,1,.75,1,.75,2.62V200.3h2.37V177.58c0,.33,20,23.88,20,23.88V172Zm139,0V200.3h17.27v-2.37h-12V172Zm24.67,0V200.3h17.26v-2.37h-12V172Zm24.67,0V200.3h17.51v-2.37H376V185.7h7.78v-2.37H376v-8.94h10.32V172Zm62.9,0V200.3h17.51v-2.37H438.91V185.7h7.78v-2.37h-7.78v-8.94h10.32V172ZM.08,179.45c0,3.16,1.66,5.41,5.49,7.53s7.4,2.58,7.4,6.57c0,2-1.25,5-5.37,5-4.32,0-6.82-3.91-7.61-6.86l.21,7a17.67,17.67,0,0,0,8,2c5.12,0,9.69-3.53,9.69-8.74,0-5.78-4-7.15-7.9-9s-5.7-2.74-5.7-5.28c0-1.79,1.25-4,4.41-4,4,0,6.37,3.33,6.95,5.53l-.21-6.16a13.38,13.38,0,0,0-6.28-1.54c-3.78,0-9.07,2.25-9.07,7.9m193.27-5.24a2.53,2.53,0,0,0,.87,1.91,3.13,3.13,0,0,0,1,.62.8.8,0,0,1,.54.87,3,3,0,0,1-1.37,1.87c-.5.21-.54,1,0,1,1.08,0,4.12-2.54,4.12-5.82,0-2.5-1.5-3.12-2.58-3.12a2.59,2.59,0,0,0-2.62,2.66m13.19,5.24c0,3.16,1.66,5.41,5.49,7.53s7.4,2.58,7.4,6.57c0,2-1.25,5-5.37,5-4.33,0-6.82-3.91-7.61-6.86l.21,7a17.66,17.66,0,0,0,8,2c5.12,0,9.69-3.53,9.69-8.74,0-5.78-4-7.15-7.9-9s-5.7-2.74-5.7-5.28c0-1.79,1.25-4,4.41-4,4,0,6.36,3.33,6.95,5.53l-.21-6.16a13.38,13.38,0,0,0-6.28-1.54c-3.78,0-9.07,2.25-9.07,7.9m39.64,6.78c0,8.86,7.28,14.48,15.48,14.48A21.32,21.32,0,0,0,272.23,198s.46-6.16.38-6c-2.75,5.7-7.45,6.36-9.4,6.36-8.57,0-11.44-7-11.44-12.73,0-6.7,4-11.9,11.15-11.9a10,10,0,0,1,9.4,6.36c.08.17-.37-6.45-.37-6.45a22.59,22.59,0,0,0-9.78-2.16c-10.57,0-16,7.41-16,14.69m148.72,0c0,8.86,7.32,14.48,15.6,14.48A32,32,0,0,0,422.57,198V187.9h-5.28V197a10,10,0,0,1-5.28,1.37c-8.61,0-11.44-7-11.44-12.73,0-6.7,4.08-11.9,11.15-11.9a10,10,0,0,1,9.36,6.53l-.29-6.62a24,24,0,0,0-9.78-2.16c-10.65,0-16.1,7.41-16.1,14.69m-304-.79c.08-7.36,4.2-11.73,9.69-11.73s9.65,4.74,9.57,12.77c0,7.53-4,11.86-9.48,11.86-4.79,0-9.78-4-9.78-12.9m-5.78.46c-.17,8.53,6.82,14.68,15.18,14.81,7.53.08,15.56-4.74,15.72-14.48.13-9.44-7.95-14.6-15.06-14.69h-.25c-9.83,0-15.47,7.22-15.6,14.35m201.21-.46c.08-7.36,4.2-11.73,9.69-11.73s9.65,4.74,9.57,12.77c0,7.53-4,11.86-9.48,11.86-4.78,0-9.78-4-9.78-12.9m-5.78.46c-.17,8.53,6.82,14.68,15.18,14.81,7.53.08,15.56-4.74,15.73-14.48.13-9.44-7.95-14.6-15.06-14.69h-.25c-9.83,0-15.47,7.22-15.6,14.35" fill="none"></path>
    </clipPath>
    <linearGradient id="40b92ca1-bde1-45f6-94cc-e9fd8a1a8c87" x1="-195.37" y1="841.65" x2="-194.37" y2="841.65" gradientTransform="matrix(-451.14, 0, 0, 451.14, -87689.92, -379514.68)" gradientUnits="userSpaceOnUse">
      <stop offset="0" stop-color="#d1ad53"></stop>
      <stop offset="0.19" stop-color="#e1c177"></stop>
      <stop offset="0.49" stop-color="#ffe4b8"></stop>
      <stop offset="0.77" stop-color="#e5c57f"></stop>
      <stop offset="1" stop-color="#d1ad53"></stop>
    </linearGradient>
    <clipPath id="d65a9413-a784-423b-8149-701168876a44" transform="translate(0 0)">
      <path d="M225.57,0H177.71c-5.74,0-7.22,3.86-7.57,5.76-10.09,55,12.87,99,49.78,115.33-5.23-.55-10-1.72-15.48-2.53a86.39,86.39,0,0,0-17.6-.36l.84-6c.41-2.64-1.59-5.62-6.64-5.62-19.63,0-3.11-15.21-18.92-21.39a1.09,1.09,0,0,0-1.6,1.1c0,8.1-8.17,12-8.17,22.09,0,7.75,5.16,12.62,11.94,14.64l.6.17c-4.34,9.32-8.9,16.38,3.2,18.89,5.45,1.14,10.71.56,16,0,5.42-.59,10.84-1.18,16.48.1,8.38,1.9,16.3,3.74,25,3.74s16.65-1.84,25-3.74c5.64-1.28,11.07-.69,16.48-.1,5.26.57,10.51,1.14,16,0,12.08-2.51,7.51-9.44,3.23-18.85,6.86-1.62,12.53-7.21,12.53-14.86,0-10.12-8.17-14-8.17-22.09a1.09,1.09,0,0,0-1.6-1.1c-8.68,3.39-7.24,9-8.36,15.58-.92,5.4-5.78,5.81-10.55,5.81-4.95,0-7,2.86-6.67,5.46l0,.16.84,6a86.38,86.38,0,0,0-17.6.36c-5.44.81-10.26,2-15.49,2.53C268.13,104.74,291.08,60.71,281,5.76c-.35-1.9-1.83-5.76-7.57-5.76Z" fill="none"></path>
    </clipPath>
    <linearGradient id="8ffd9936-02a9-4cb7-a99b-ca890ab4b886" x1="-195.37" y1="841.65" x2="-194.37" y2="841.65" gradientTransform="matrix(-146.45, 0, 0, 146.45, -28313.95, -123188.59)" xlink:href="#40b92ca1-bde1-45f6-94cc-e9fd8a1a8c87"></linearGradient>
    <clipPath id="7cfa5342-a513-477b-ad0b-19bb4da27e31" transform="translate(0 0)">
      <path d="M204.57,96.43a6.14,6.14,0,0,1,.11-3.56,2.46,2.46,0,0,1-.37,0,2,2,0,0,1-1.14-.62c-.56,1.63-.42,3.12,1.4,4.22m42.22-3.6a2.46,2.46,0,0,1-.37,0,6.13,6.13,0,0,1,.11,3.56c1.82-1.09,2-2.58,1.4-4.22a2,2,0,0,1-1.14.62m-34-2.65a3.73,3.73,0,0,1-.5.41,5.13,5.13,0,0,1,1.67,2.94,4.08,4.08,0,0,0-.43-4.41,3,3,0,0,1-.74,1.06m24.41,3.35a5.13,5.13,0,0,1,1.67-2.94,3.73,3.73,0,0,1-.5-.41,3,3,0,0,1-.75-1.06,4.09,4.09,0,0,0-.43,4.41m-41.8-1.59a3.5,3.5,0,0,1,1.92-2.65,2.46,2.46,0,0,1-.92-1.93c-1.61,1-2,2.45-1,4.58m58.45-2.65a3.5,3.5,0,0,1,1.92,2.65c1-2.13.61-3.6-1-4.58a2.46,2.46,0,0,1-.92,1.93m-28.26,4.06-1.87-8.46-4.77,3-5,9.21-.42,3.24,2.63-1.24-.3,3.41,2.69-1.25-.24,3.32,2.13-1.32,2.85-14.16-1.48,15.66,3.75,5.26,3.76-5.26-1.48-15.66,2.85,14.16,2.13,1.32-.24-3.32,2.69,1.25-.3-3.41,2.62,1.24-.42-3.24-4.95-9.21-4.78-3.06Zm-29.63-6.71.45-.11a1.55,1.55,0,0,1,1-1l.81-.28a3,3,0,0,1,0-1.68l-.38,0c-1.51,0-2.12.94-1.81,3.08M253,83.58a3,3,0,0,1,0,1.68l.81.28a1.55,1.55,0,0,1,1,1l.45.11c.31-2.15-.31-3.08-1.81-3.08l-.38,0m-54.33.25q0,1.07.62.87a26.45,26.45,0,0,0,4.93-2.63q-.75,0-1.4,0c-2.72,0-4.12.64-4.15,1.8m48.23-1.75a26.45,26.45,0,0,0,4.92,2.63q.64.2.62-.87c0-1.16-1.42-1.8-4.15-1.8q-.65,0-1.4,0m-38.39-2a37.85,37.85,0,0,1-10.83,6.41c-1.25.41-.31,2.67.45,2.33l6-2.3a.33.33,0,0,1,.48.34,14.07,14.07,0,0,1-1,4.26c-.43,1.2,1.94,1.66,2.52.17l1.74-4.47a.33.33,0,0,1,.63-.06l2,3.18c.82,1.27,3.14-1.14,2.24-2.21l-2.94-3.5a.46.46,0,0,1,0-.41l3.56-4.6a29.87,29.87,0,0,1-4.86.86m32.79,3.73a.47.47,0,0,1,0,.41l-2.95,3.5c-.89,1.06,1.43,3.48,2.24,2.21l2-3.18a.33.33,0,0,1,.63.06L245,91.23c.58,1.49,3,1,2.52-.17a14.07,14.07,0,0,1-1-4.26.33.33,0,0,1,.48-.34l6,2.3c.76.34,1.7-1.93.45-2.33A37.83,37.83,0,0,1,242.59,80a29.87,29.87,0,0,1-4.86-.86Zm-15.75-3.21q-2-1.34-3.74-2.68l-3.34,5.34,3.76-1.46L220,85.86l4.38-2.8,1.12,5.05,1.12-5.05,4.38,2.8-2.19-4.12,3.76,1.46-3.34-5.34q-1.75,1.35-3.74,2.69M208.12,74.9a13.79,13.79,0,0,0,3.88-.34l-2.82,4.33a24.66,24.66,0,0,0,5.8-1.35l.23,4.22a47.41,47.41,0,0,0,4.4-5.69,45.25,45.25,0,0,1-6.45-6.65,54.69,54.69,0,0,1-5,5.49m23.37,1.17a47.1,47.1,0,0,0,4.4,5.69l.22-4.22a24.67,24.67,0,0,0,5.8,1.35l-2.82-4.33a13.8,13.8,0,0,0,3.88.34,54.69,54.69,0,0,1-5-5.49,45.3,45.3,0,0,1-6.45,6.65M194.4,67.71q-1.37,2.32-3,4.6,2.45-.82,4.84-1.89,1.71-3,3.3-6.12-2.55,1.86-5.17,3.41m60.43,2.71q2.39,1.07,4.84,1.89-1.59-2.28-3-4.6-2.62-1.55-5.17-3.41,1.59,3.13,3.3,6.12M189.56,58.64a51.7,51.7,0,0,1-3.85,4.75A38.39,38.39,0,0,0,191.3,62q1.73-2.61,3.16-5.32-2.4,1.05-4.9,1.92M259.8,62a38.35,38.35,0,0,0,5.59,1.35,52.18,52.18,0,0,1-3.85-4.75q-2.5-.86-4.9-1.92,1.43,2.71,3.16,5.32m-39.16-3.87c0,1.23.84,1.85,1.84,2.48l.73.47a5.19,5.19,0,0,1,.67.53,2.06,2.06,0,0,1,.71,1.54l-.09,1.16a2.71,2.71,0,0,0-.78,2,2.77,2.77,0,0,0,.88,2.07v2.07l-.27,0a12,12,0,0,0-3.28.62c-.86.33-1.16.67-1.16.89,0,.66,2.22,1.55,5.69,1.55s5.69-.89,5.69-1.55c0-.22-.29-.57-1.16-.89a12,12,0,0,0-3.28-.62l-.27,0,.09-2.16a2.71,2.71,0,0,0,.78-2,2.77,2.77,0,0,0-.87-2.07V63.19a2.06,2.06,0,0,1,.71-1.54,5.2,5.2,0,0,1,.67-.53l.73-.47c1-.63,1.84-1.24,1.84-2.48l0-3.88a6.14,6.14,0,0,1-.95.34,17.41,17.41,0,0,1-7.91,0,5.91,5.91,0,0,1-1-.35ZM222,51.93a3.85,3.85,0,0,0-1,.42c-.24.16-.28.27-.28.31s0,.15.28.31a3.82,3.82,0,0,0,1,.42,16.16,16.16,0,0,0,7.23,0,3.81,3.81,0,0,0,1-.42c.24-.16.28-.27.28-.31s0-.15-.28-.31a3.84,3.84,0,0,0-1-.42,16.16,16.16,0,0,0-7.23,0M185.7,48.35a48.51,48.51,0,0,1-4.29,4.1,36.74,36.74,0,0,0,5.61-.19q2-2.36,3.61-4.78a45,45,0,0,1-4.92.87m78.38,3.9a36.75,36.75,0,0,0,5.61.19,48.64,48.64,0,0,1-4.29-4.1,45,45,0,0,1-4.92-.87q1.65,2.42,3.6,4.78m-40-2.26a.27.27,0,0,1-.5,0l-2.08-2.9-.28,2.69a.27.27,0,0,1-.44.22l-5.22-2.74c2.52,4.42,3,4.85,2.28,4.87l-6.55.19,5.49,3.59a.27.27,0,0,1,0,.5l-5.12,2.9,6.14.37a.27.27,0,0,1,.23.46l-3.61,5.33,5.65-2c.31-.11.5.11.36.4l-2.58,5.47,4.92-3.24a3.76,3.76,0,0,1,.87-2.33v-.67a1.06,1.06,0,0,0-.4-.81,4.28,4.28,0,0,0-.54-.42l-.71-.45c-1-.61-2.31-1.49-2.31-3.33V52.66a1.41,1.41,0,0,1,.73-1.15,4.86,4.86,0,0,1,1.32-.54,17.18,17.18,0,0,1,7.75,0,4.83,4.83,0,0,1,1.32.54,1.44,1.44,0,0,1,.74,1.2v5.46c0,1.83-1.34,2.71-2.31,3.33l-.71.45a4,4,0,0,0-.54.42,1.07,1.07,0,0,0-.4.81v.67a3.77,3.77,0,0,1,.87,2.33l4.91,3.23L230.74,64c-.14-.29.05-.51.36-.4l5.65,2-3.61-5.33a.27.27,0,0,1,.22-.46l6.14-.37-5.12-2.9a.27.27,0,0,1,0-.5l5.49-3.59-6.55-.19c-.7,0-.24-.45,2.28-4.87L230.37,50a.27.27,0,0,1-.45-.22l-.28-2.69L227.57,50a.27.27,0,0,1-.5,0l-1.51-3Zm-45.17-9.7a42.66,42.66,0,0,0,5.53.81,57.28,57.28,0,0,0,4.12-4.16q-2.51.08-5-.05a46.63,46.63,0,0,1-4.69,3.41m83.67-3.36a57.88,57.88,0,0,0,4.12,4.16,42.56,42.56,0,0,0,5.53-.81,46.62,46.62,0,0,1-4.69-3.41q-2.45.14-5,.05M177.82,28a48.5,48.5,0,0,0,5.89,1.7,43.66,43.66,0,0,0,4.08-3.24,48,48,0,0,1-5.12-.75,44.1,44.1,0,0,1-4.86,2.3m85.48-1.55a43.53,43.53,0,0,0,4.09,3.24,48.49,48.49,0,0,0,5.89-1.7,44.08,44.08,0,0,1-4.86-2.3,48,48,0,0,1-5.12.75m-42.52-5.88c1.36-.22,3-.45,3.7.55a7.37,7.37,0,0,0-1.26-.07,1.35,1.35,0,0,1,.22.6,1.33,1.33,0,1,1-2.63-.14c-1.06.33-1.64.49-2.15-.89a1.09,1.09,0,0,0,.59.13,10.78,10.78,0,0,0,1.53-.19m4.1-1.83c-4-.24-7.48-.47-7.92,2.67-5.88.12-8.68,3.81-4.87,8.45-.78-3.7,2.13-4.85,6.25-3.74a4.38,4.38,0,0,1,1.35-.79,8,8,0,0,1,2.3,2,9.72,9.72,0,0,0-2.84.19,12.7,12.7,0,0,1-3.92.14q1.1,2,7.38.77l.05.19a18.82,18.82,0,0,1-9.1.71c.64,2.09,2.68,2,4.67,1.85,1.55-.09,3.08-.19,3.89.77-1.15,2.79-5.38,5.3-6.36,12,3-.6,6.42.13,9.8,2.64,3.75-2.78,7.58-3.38,10.74-2.39-1.69-5.3,2.63-16.35-2.22-21.2,1.11-.52,2.79-1.14,3.43-2.5a6,6,0,0,1-3.08.31,9.14,9.14,0,0,0-3,.13s2.46-1.6,2.85-3.65c-2.4,1.83-6.06,1.63-9.4,1.43m-47.14-2.33a46.56,46.56,0,0,0,6,2.57,35.48,35.48,0,0,0,4.27-2.3c-1-.31-2.53-.8-4.2-1.45l-.56-.22q-2.61.8-5.54,1.4m89.51-1.18c-1.67.65-3.17,1.13-4.2,1.45a35.62,35.62,0,0,0,4.27,2.3,46.58,46.58,0,0,0,6-2.57q-2.93-.6-5.54-1.4ZM203,52c.69-1.29,2.44-.14,1.45,1.3a63.38,63.38,0,0,1-12.92,13.14A73.48,73.48,0,0,0,203,52m-4.18-6.65c.84-1.11,2.33.23,1.17,1.45a60.8,60.8,0,0,1-14.2,10.5,70.44,70.44,0,0,0,13-11.95m4.93,3.73a.36.36,0,0,1,0-.41,12.2,12.2,0,0,0,1.92-5.6,6.13,6.13,0,0,1,0,4.25,5.31,5.31,0,0,1,4,.43,10.78,10.78,0,0,0-5.5,1.42.27.27,0,0,1-.14,0,.34.34,0,0,1-.25-.12m-3.85-6.29a.34.34,0,0,1,.06-.39A11.24,11.24,0,0,0,203,37.74a5.77,5.77,0,0,1-1,3.9,5.15,5.15,0,0,1,3.59,1.45,10.19,10.19,0,0,0-5.39-.14h-.06a.32.32,0,0,1-.27-.18m-4.1-5.46c1-.91,2.15.61.86,1.56a58.1,58.1,0,0,1-15.12,7.53,67.34,67.34,0,0,0,14.26-9.09m2-1.08a.31.31,0,0,1,.13-.35,10.33,10.33,0,0,0,3.75-3.66,5.36,5.36,0,0,1-1.68,3.4,5,5,0,0,1,3.06,2.1,9.76,9.76,0,0,0-5-1.26h0a.3.3,0,0,1-.27-.24m-3.2-6.87c1.06-.59,1.77,1,.42,1.57a52.87,52.87,0,0,1-15,3.32,61.26,61.26,0,0,0,14.58-4.88m7-7.58a4.58,4.58,0,0,1-2.37,2.37,4.71,4.71,0,0,1,2,2.71,5,5,0,0,1-2.11,2.88,4.87,4.87,0,0,1,2.53,2.49,9.4,9.4,0,0,0-4.45-2,.29.29,0,0,1-.22-.27.29.29,0,0,1,.18-.3,9.53,9.53,0,0,0,4.08-2.76,9.07,9.07,0,0,0-3.87-2.59.28.28,0,0,1-.17-.28.27.27,0,0,1,.21-.25,8.86,8.86,0,0,0,4.19-2h0m-21.2.94a61.28,61.28,0,0,0,15.11-2.81c1.14-.43,1.61,1.25.2,1.61a53.56,53.56,0,0,1-11.85,1.34c-1.15,0-2.31,0-3.47-.14m23-9.79a3.85,3.85,0,0,1-2.25,1.71,4.13,4.13,0,0,1,1.4,2.49,4.06,4.06,0,0,1-2.38,1.8,4.25,4.25,0,0,1,1.47,2.65,8.18,8.18,0,0,0-3.13-2.77.26.26,0,0,1-.12-.27.24.24,0,0,1,.22-.2,7.86,7.86,0,0,0,3.93-1.2,7.75,7.75,0,0,0-3-2.62.24.24,0,0,1-.11-.26.23.23,0,0,1,.21-.19,7.45,7.45,0,0,0,3.73-1.15h0M196,15.08c-2.37-.28-9.2-1.13-14.59-3.74a58.31,58.31,0,0,0,15,2.24c1.1,0,1,1.51-.19,1.51H196m-4.1-4.47c-5.81,0-12.12-.31-16.36-1.35,4.58,4.23,14.53,6.83,14.53,6.83-3.62,2.58-8.4,4.63-14.36,6.33a44.58,44.58,0,0,0,14.12,3.13A49.25,49.25,0,0,1,176,34.76a53.54,53.54,0,0,0,14.47,1,70.77,70.77,0,0,1-13,11.75A46.45,46.45,0,0,0,192.57,46a69.63,69.63,0,0,1-12.16,14.12,67,67,0,0,0,16-5.2A66.57,66.57,0,0,1,185,71.17a58.1,58.1,0,0,0,16.86-9.58,131,131,0,0,1-10.49,18.07c2.92-2.29,6.94-4.92,10.68-7.87a72.16,72.16,0,0,1-3.64,7.45c4.28-2.91,10-7.29,13.12-12.06a26.89,26.89,0,0,1-2.75-5.37,54.37,54.37,0,0,1-10.14,9.64A65,65,0,0,0,208.22,60c-2-7.15.65-12.89,5.12-15.15-6-5.23-8.84-16.82-6.08-33,.09-.53.26-1.72-.95-1.7A88.78,88.78,0,0,1,187.1,7.93a31.74,31.74,0,0,0,4.78,2.68m54.79,42.68c-1-1.44.76-2.59,1.45-1.3a73.49,73.49,0,0,0,11.48,14.44,63.47,63.47,0,0,1-12.93-13.14m4.45-6.5c-1.16-1.21.33-2.56,1.17-1.45a70.49,70.49,0,0,0,13,11.95,60.79,60.79,0,0,1-14.21-10.5M245.48,43a12.19,12.19,0,0,0,1.92,5.6.35.35,0,0,1,0,.41.31.31,0,0,1-.39.08,10.79,10.79,0,0,0-5.5-1.42,5.31,5.31,0,0,1,4-.43,6.12,6.12,0,0,1,0-4.25m3.6-1.41a5.75,5.75,0,0,1-1-3.9,11.21,11.21,0,0,0,3.09,4.64.34.34,0,0,1,.07.39.31.31,0,0,1-.34.18,10.18,10.18,0,0,0-5.39.14,5.14,5.14,0,0,1,3.59-1.45m5.37-2.76c-1.29-.95-.12-2.47.86-1.56a67.34,67.34,0,0,0,14.26,9.09,58.13,58.13,0,0,1-15.12-7.53m-3.3-3.24a5.36,5.36,0,0,1-1.68-3.4,10.33,10.33,0,0,0,3.75,3.66.32.32,0,0,1,.13.35.3.3,0,0,1-.28.24,9.76,9.76,0,0,0-5,1.26,5,5,0,0,1,3.06-2.1m5-4.7c-1.35-.55-.64-2.15.42-1.57a61.25,61.25,0,0,0,14.58,4.88,52.89,52.89,0,0,1-15-3.32m-6.23-4.07a4.71,4.71,0,0,1,2-2.71,4.59,4.59,0,0,1-2.37-2.37,8.86,8.86,0,0,0,4.19,2,.27.27,0,0,1,.21.25.28.28,0,0,1-.17.28,9.07,9.07,0,0,0-3.87,2.59A9.53,9.53,0,0,0,254,29.61a.3.3,0,0,1,.18.3.29.29,0,0,1-.23.27,9.39,9.39,0,0,0-4.45,2A4.87,4.87,0,0,1,252,29.74a5,5,0,0,1-2.11-2.88h0m5.54-5.33c-1.41-.36-.94-2,.2-1.61a61.28,61.28,0,0,0,15.12,2.81c-1.15.1-2.32.14-3.47.14a53.56,53.56,0,0,1-11.85-1.34M251,18.95a4.06,4.06,0,0,1-2.38-1.8,4.13,4.13,0,0,1,1.4-2.49,3.86,3.86,0,0,1-2.25-1.71,7.45,7.45,0,0,0,3.74,1.15.23.23,0,0,1,.2.19.24.24,0,0,1-.11.26,7.75,7.75,0,0,0-3,2.62,7.86,7.86,0,0,0,3.93,1.2.24.24,0,0,1,.22.2.25.25,0,0,1-.12.27,8.19,8.19,0,0,0-3.13,2.77A4.25,4.25,0,0,1,251,18.95m3.77-5.36a58.3,58.3,0,0,0,15-2.24c-5.39,2.6-12.23,3.46-14.59,3.74h-.18c-1.21,0-1.29-1.5-.19-1.51m-10-3.46c-1.21,0-1,1.16-.95,1.7,2.76,16.23,0,27.82-6.08,33,4.46,2.26,7.07,8,5.11,15.15a65,65,0,0,0,9.56,11.43,54.36,54.36,0,0,1-10.14-9.64,26.84,26.84,0,0,1-2.76,5.37c3.11,4.77,8.84,9.15,13.12,12.06A72,72,0,0,1,249,71.8c3.74,2.95,7.76,5.58,10.68,7.87A130.92,130.92,0,0,1,249.21,61.6a58.06,58.06,0,0,0,16.86,9.58,66.57,66.57,0,0,1-11.33-16.26,67,67,0,0,0,16,5.2A69.6,69.6,0,0,1,258.53,46a46.46,46.46,0,0,0,15.12,1.56,70.9,70.9,0,0,1-13-11.75,53.56,53.56,0,0,0,14.47-1,49.26,49.26,0,0,1-13.78-9.21,44.59,44.59,0,0,0,14.12-3.12c-6-1.7-10.75-3.75-14.36-6.33,0,0,10-2.6,14.54-6.83-4.24,1-10.55,1.34-16.36,1.35A31.78,31.78,0,0,0,264,7.93a88.78,88.78,0,0,1-19.21,2.19" fill="none"></path>
    </clipPath>
    <linearGradient id="bac40ddf-12c9-4e55-b109-8ccfc03e814b" x1="-195.37" y1="841.65" x2="-194.37" y2="841.65" gradientTransform="matrix(-100.06, 0, 0, 100.06, -19274.21, -84160.05)" gradientUnits="userSpaceOnUse">
      <stop offset="0" stop-color="#dcbb71"></stop>
      <stop offset="0.26" stop-color="#eed095"></stop>
      <stop offset="0.5" stop-color="#ffe4b8"></stop>
      <stop offset="0.67" stop-color="#f3d6a0"></stop>
      <stop offset="1" stop-color="#ddbc73"></stop>
    </linearGradient>
  </defs>
  <title>StJohns_gold</title>
  <g id="b7ac1a44-35c2-4f7c-8f7e-a2a2be95aad6" data-name="Layer 2">
    <g id="bb656a9b-47a6-4dbe-873c-0322434237c9" data-name="Layer 1">
      <g clip-path="url(#391ed3c8-1603-471f-9c31-1781054c72a9)">
        <rect y="171.55" width="451.15" height="37.73" fill="url(#40b92ca1-bde1-45f6-94cc-e9fd8a1a8c87)"></rect>
      </g>
      <g clip-path="url(#d65a9413-a784-423b-8149-701168876a44)">
        <rect x="152.34" width="146.45" height="145.95" fill="url(#8ffd9936-02a9-4cb7-a99b-ca890ab4b886)"></rect>
      </g>
      <path d="M225.57,2h47.85c4.41,0,5.36,2.75,5.61,4.12,10.4,56.64-14.79,101-53.46,115.09Z" transform="translate(0 0)" fill="#00365e" fill-rule="evenodd"></path>
      <path d="M225.57,2V46.63c15-11.15,31.56,12.78,0,33.89v40.7c-38.67-14.08-63.86-58.46-53.46-115.09.25-1.37,1.2-4.12,5.61-4.12Z" transform="translate(0 0)" fill="#7a0441"></path>
      <path d="M268.73,113.45c-1.61,0-2.78-.78-3-2.14s1.19-2.76,4.35-2.76c6,0,11.72-1,12.87-7.77.88-5.16-.42-10,5.41-13.1,1,7.82,8.06,11.65,8.06,20.32,0,6.8-5.24,11.48-11.35,12.7a19.39,19.39,0,0,1-1.57-4.73c-.39-2-2.39-3.91-5.71-3.91-3.17,0-6,1.39-9.09,1.39m-86.32,0c1.61,0,2.78-.78,3-2.14s-1.19-2.76-4.35-2.76c-6,0-11.72-1-12.87-7.77-.88-5.16.42-10-5.41-13.1-1,7.82-8.06,11.65-8.06,20.32,0,6.8,5.24,11.48,11.35,12.7a19.47,19.47,0,0,0,1.57-4.73c.39-2,2.39-3.91,5.71-3.91,3.17,0,6,1.39,9.09,1.39m83.92,1.9.36,2.57c3.52.2,7.06.41,10.61.41,5.8,0,4.46-3.92.52-3.92-3.13,0-5.94,1.39-9.09,1.39a6.2,6.2,0,0,1-2.4-.45m-81.89,2.57.36-2.57a6.24,6.24,0,0,1-2.39.45c-3.15,0-6-1.39-9.09-1.39-3.94,0-5.28,3.92.52,3.92,3.55,0,7.08-.2,10.6-.41" transform="translate(0 0)" fill="#00365e" fill-rule="evenodd"></path>
      <path d="M272.64,133.64a4,4,0,0,0,2.94.7,2.45,2.45,0,0,0,2.36-2.75c-.34-2.41-3.75-1.76-3.89-2.72-.06-.43.34-.66.73-.71a2.94,2.94,0,0,1,1.78.43l.58-1.64a3.5,3.5,0,0,0-2.58-.52,2.47,2.47,0,0,0-2.37,2.72c.33,2.35,3.76,1.83,3.89,2.74.07.46-.33.67-.71.72a3.19,3.19,0,0,1-1.93-.53Zm-4.34-6s.07.86.15,1.35l.24,1.54-1.51-.19.62-1.43c.2-.46.47-1.28.47-1.28Zm.92,6.11,1.93.24-1.66-8-2-.24L264,133.13l1.93.24.66-1.55,2.39.29Zm-9.31-.85,1.89.07.21-6.09,2.34.08.06-1.61-6.56-.23-.06,1.61,2.34.08Zm-5.31.12,1.88-.13-.54-7.69-1.88.13Zm-6.19-3.33-.33-1.85.63-.11c.93-.16,1.21.14,1.31.71a.88.88,0,0,1-.8,1.1Zm-1.13,4.48,1.86-.33-.45-2.56.87-.15,1.8,2.32,2.07-.36-1.94-2.39a4.33,4.33,0,0,0-.37-.41,2.41,2.41,0,0,0,.77-2.29,2.24,2.24,0,0,0-1.79-2,4,4,0,0,0-1.51.08l-2.64.47Zm-6-4.76s.34.79.58,1.23l.73,1.38-1.49.32.12-1.56c0-.5,0-1.36,0-1.36Zm2.86,5.47,1.9-.4-4.16-7-1.94.41L239,136l1.9-.4.12-1.68,2.35-.5Zm-13.92-1.58a3.87,3.87,0,0,0,4.5,3.48,4.23,4.23,0,0,0,2.92-1.66l-1.13-1.25a3.16,3.16,0,0,1-1.92,1.19,2.19,2.19,0,0,1-2.44-2,2.08,2.08,0,0,1,1.89-2.45,3.24,3.24,0,0,1,2,.55l.69-1.52a4,4,0,0,0-3-.73,3.92,3.92,0,0,0-3.53,4.43M220.74,131s.11.85.22,1.34l.32,1.53-1.52-.11.54-1.46c.17-.47.4-1.3.4-1.3ZM222,137l1.93.13-2.08-7.87-2-.14-3.15,7.51,1.93.14.58-1.58,2.4.17Zm-9.57-1.15,1.86.29,1-6,2.31.36.25-1.59-6.48-1-.25,1.6,2.31.37Zm-5.86-1.11,1.84.39,1.6-7.54-1.85-.39Zm-6.16-1.41,1.91.44,4.38-6.9-2-.45-2.33,4c-.26.44-.56,1.14-.56,1.14s0-.77,0-1.28l-.34-4.58-2-.46Zm-13.3,0,2.09-.07.83-1.65c.25-.49.44-1,.44-1s.24.46.53.94l.94,1.58,2.1-.07-2.48-3.74,2.22-4-2.14.08-.8,1.61c-.25.51-.44,1-.44,1s-.25-.5-.53-1l-.9-1.55-2.14.07,2.48,3.79Zm-8.29-2.24a3.23,3.23,0,0,0,6.43-.45l-.34-4.86-1.88.13.34,4.86a1.34,1.34,0,0,1-2.67.19l-.34-4.86-1.88.13Zm-6.3,2.65,5,.26.09-1.61-3.14-.16.32-6.08-1.88-.1Zm53.07-10.43c-8,0-13.88-1.73-21.49-2.86a54.38,54.38,0,0,0-13.05-.54c-4.07.27-8.79.75-17.2.75a8,8,0,0,1-4.68-1.22l-5.32,12.76c-1.51,3.62-1.8,6.24,4.72,7.6,11.2,2.33,20.5-2.62,32.49.1,8.2,1.86,16,3.68,24.52,3.68s16.32-1.82,24.52-3.68c12-2.72,21.28,2.23,32.49-.1,6.53-1.36,6.24-4,4.73-7.6L282,119.47a8,8,0,0,1-4.68,1.22c-8.41,0-13.13-.48-17.2-.75a54.38,54.38,0,0,0-13.05.54c-7.6,1.13-13.52,2.86-21.48,2.86" transform="translate(0 0)" fill="#00365e" fill-rule="evenodd"></path>
      <g clip-path="url(#7cfa5342-a513-477b-ad0b-19bb4da27e31)">
        <rect x="175.52" y="7.93" width="100.07" height="102.12" fill="url(#bac40ddf-12c9-4e55-b109-8ccfc03e814b)"></rect>
      </g>
      <path d="M233.28,28.73a3.37,3.37,0,0,0-1.81-1.64,6.81,6.81,0,0,1,1.62,3,.2.2,0,0,0,.39,0,6.81,6.81,0,0,1,1.62-3,3.37,3.37,0,0,0-1.81,1.64m-3.46,5.42a7.57,7.57,0,0,1,1.8-3.36,7.56,7.56,0,0,1,1.8,3.36.22.22,0,0,0,.21.16.22.22,0,0,0,.21-.16,7.57,7.57,0,0,1,1.8-3.36,3.74,3.74,0,0,0-2,1.83,3.74,3.74,0,0,0-2-1.83,3.74,3.74,0,0,0-2,1.83,3.74,3.74,0,0,0-2-1.83,7.56,7.56,0,0,1,1.8,3.36.22.22,0,0,0,.43,0m-5.5,4.48a8.41,8.41,0,0,1,2-3.73,8.42,8.42,0,0,1,2,3.73.25.25,0,0,0,.48,0,8.41,8.41,0,0,1,2-3.73,8.43,8.43,0,0,1,2,3.73.25.25,0,0,0,.47,0,8.43,8.43,0,0,1,2-3.73,4.15,4.15,0,0,0-2.23,2,4.15,4.15,0,0,0-2.23-2,4.15,4.15,0,0,0-2.23,2,4.15,4.15,0,0,0-2.23-2,4.15,4.15,0,0,0-2.23,2,4.15,4.15,0,0,0-2.23-2,8.42,8.42,0,0,1,2,3.73.25.25,0,0,0,.24.18.24.24,0,0,0,.24-.18m3.6,2.61A4.62,4.62,0,0,0,225.44,39,4.62,4.62,0,0,0,223,41.24,4.61,4.61,0,0,0,220.47,39a9.34,9.34,0,0,1,2.22,4.15.27.27,0,0,0,.53,0A9.35,9.35,0,0,1,225.44,39a9.36,9.36,0,0,1,2.22,4.15.27.27,0,0,0,.53,0A9.34,9.34,0,0,1,230.4,39a9.33,9.33,0,0,1,2.22,4.15.28.28,0,0,0,.53,0A9.33,9.33,0,0,1,235.37,39a4.61,4.61,0,0,0-2.48,2.25A4.61,4.61,0,0,0,230.4,39a4.61,4.61,0,0,0-2.48,2.25" transform="translate(0 0)" fill="#7a0441" fill-rule="evenodd"></path>
    </g>
  </g>
</svg>
